<svg width="40" height="26" viewBox="0 0 40 26" fill="none" xmlns="http://www.w3.org/2000/svg">
<path fill-rule="evenodd" clip-rule="evenodd" d="M12.3853 9.29775C12.104 9.63468 11.6539 9.90042 11.2039 9.86246C11.1476 9.4069 11.368 8.92285 11.6258 8.62388C11.9071 8.27746 12.3993 8.03072 12.7978 8.01172C12.8447 8.48629 12.6619 8.95133 12.3853 9.29775ZM12.7931 9.95261C12.3966 9.92953 12.0348 10.0733 11.7426 10.1895C11.5546 10.2642 11.3953 10.3275 11.2742 10.3275C11.1382 10.3275 10.9724 10.2609 10.7862 10.186C10.5423 10.0879 10.2634 9.97573 9.97091 9.98109C9.30054 9.99057 8.67703 10.375 8.33478 10.9872C7.63159 12.2115 8.15195 14.0243 8.83171 15.0208C9.16457 15.5144 9.56307 16.0553 10.0881 16.0364C10.3191 16.0276 10.4853 15.9562 10.6572 15.8823C10.8552 15.7973 11.0609 15.7089 11.382 15.7089C11.692 15.7089 11.8887 15.7949 12.0775 15.8776C12.257 15.9561 12.4294 16.0315 12.6853 16.0269C13.2291 16.0174 13.5713 15.5334 13.9041 15.0398C14.2633 14.5101 14.4212 13.9932 14.4452 13.9147L14.448 13.9056C14.448 13.9056 14.443 13.903 14.4351 13.8994C14.315 13.8437 13.3973 13.4184 13.3885 12.2779C13.3796 11.3206 14.1164 10.8356 14.2324 10.7593C14.2395 10.7546 14.2442 10.7515 14.2464 10.7499C13.7776 10.0475 13.0463 9.97161 12.7931 9.95261ZM16.5576 15.9747V8.57643H19.3001C20.7159 8.57643 21.7051 9.56349 21.7051 11.0061C21.7051 12.4488 20.6972 13.4453 19.2626 13.4453H17.6921V15.9747H16.5576ZM17.692 9.54453H19C19.9845 9.54453 20.547 10.076 20.547 11.0109C20.547 11.9457 19.9845 12.482 18.9953 12.482H17.692V9.54453ZM25.4509 15.0873C25.1508 15.6662 24.4898 16.0316 23.7772 16.0316C22.7224 16.0316 21.9864 15.3957 21.9864 14.4372C21.9864 13.488 22.699 12.9423 24.0163 12.8616L25.4321 12.7762V12.3681C25.4321 11.7654 25.043 11.438 24.3492 11.438C23.7772 11.438 23.36 11.7369 23.2756 12.1925H22.2536C22.2864 11.2339 23.1772 10.5363 24.382 10.5363C25.6806 10.5363 26.5244 11.2244 26.5244 12.2922V15.9747H25.4743V15.0873H25.4509ZM24.0819 15.1537C23.4771 15.1537 23.0927 14.8595 23.0927 14.4087C23.0927 13.9436 23.4631 13.6731 24.171 13.6304L25.432 13.5497V13.9673C25.432 14.6602 24.8507 15.1537 24.0819 15.1537ZM30.0076 16.2642C29.5529 17.5597 29.0325 17.9868 27.9261 17.9868C27.8417 17.9868 27.5604 17.9773 27.4948 17.9583V17.0709C27.5651 17.0804 27.7386 17.0899 27.8276 17.0899C28.3293 17.0899 28.6106 16.8763 28.784 16.3211L28.8871 15.9937L26.965 10.6075H28.1511L29.4872 14.9781H29.5106L30.8467 10.6075H32L30.0076 16.2642Z" fill="#212427"/>
<rect x="0.5" y="0.511719" width="39" height="24.9751" rx="3.5" stroke="black" stroke-opacity="0.08"/>
</svg>
