<svg width="40" height="26" viewBox="0 0 40 26" fill="none" xmlns="http://www.w3.org/2000/svg">
<path d="M16.9747 16.0623L16.9462 16.0899C16.4984 16.5462 15.9803 16.7872 15.4466 16.7872C14.332 16.7872 13.5233 15.951 13.5233 14.7976C13.5233 13.646 14.332 12.8084 15.4466 12.8084C15.9803 12.8084 16.4984 13.0507 16.9462 13.5087L16.9747 13.5359L17.6915 12.6689L17.6723 12.6458C17.0762 11.9414 16.3608 11.5989 15.4814 11.5989C14.5997 11.5989 13.7924 11.896 13.2115 12.431C12.5789 13.0111 12.2461 13.8291 12.2461 14.7976C12.2461 15.766 12.5789 16.5858 13.2115 17.1659C13.7924 17.704 14.5997 17.9989 15.4814 17.9989C16.3608 17.9989 17.0762 17.6559 17.6723 16.9511L17.6915 16.9297L16.9747 16.0623ZM18.4155 17.8807H19.6816V11.6989H18.4155V17.8807ZM24.642 16.5368C24.3039 16.7426 23.9898 16.8465 23.7074 16.8465C23.298 16.8465 23.1126 16.6299 23.1126 16.1488V12.8686H24.4032V11.7049H23.1126V9.78125L21.8719 10.4459V11.7049H20.8009V12.8686H21.8719V16.3578C21.8719 17.308 22.435 17.9584 23.2761 17.9753C23.8468 17.9865 24.1907 17.8163 24.3992 17.6916L24.4126 17.6831L24.7169 16.4909L24.642 16.5368ZM25.6901 17.8807H26.958V11.6989H25.6901V17.8807Z" fill="#004685"/>
<path d="M27.6965 10.616C26.5395 8.97744 24.6185 8 22.6641 8C20.7101 8 18.7887 8.97744 17.6339 10.616L17.5742 10.7002H19.0311L19.0471 10.6828C20.0384 9.65907 21.333 9.11822 22.6641 9.11822C23.9952 9.11822 25.289 9.65907 26.2825 10.6828L26.2985 10.7002H27.7544L27.6965 10.616Z" fill="#EE1C25"/>
<rect x="0.5" y="0.5" width="39" height="24.9996" rx="3.5" stroke="black" stroke-opacity="0.08"/>
</svg>
