<svg width="40" height="26" viewBox="0 0 40 26" fill="none" xmlns="http://www.w3.org/2000/svg">
<path fill-rule="evenodd" clip-rule="evenodd" d="M19.0681 15.7908V12.8904H20.565C21.1784 12.8904 21.6962 12.6849 22.1183 12.2795L22.2196 12.1768C22.9905 11.3375 22.9399 10.0301 22.1183 9.2536C21.7074 8.8425 21.1447 8.61985 20.565 8.63128H18.1621V15.7908H19.0681ZM19.0682 12.0112V9.51052H20.5879C20.9144 9.51052 21.2239 9.6361 21.4547 9.8645C21.9444 10.3441 21.9556 11.1434 21.4828 11.6401C21.2521 11.8856 20.9256 12.0226 20.5879 12.0112H19.0682ZM26.4459 11.2747C26.0576 10.915 25.5286 10.7323 24.8589 10.7323C23.9979 10.7323 23.3507 11.052 22.923 11.6858L23.7221 12.1939C24.0148 11.76 24.4143 11.5431 24.9208 11.5431C25.2416 11.5431 25.5511 11.663 25.7931 11.8799C26.0294 12.0855 26.1645 12.3823 26.1645 12.6964V12.9076C25.8156 12.7135 25.3766 12.6107 24.8364 12.6107C24.2061 12.6107 23.6996 12.7591 23.3226 13.0618C22.9455 13.3643 22.7542 13.764 22.7542 14.2721C22.7429 14.7346 22.9399 15.1742 23.2888 15.4711C23.6434 15.7908 24.0936 15.9507 24.6225 15.9507C25.2472 15.9507 25.7424 15.6709 26.1195 15.1114H26.1589V15.7908H27.0255V12.7706C27.0255 12.1368 26.8342 11.6344 26.4459 11.2747ZM23.9868 14.8887C23.801 14.7517 23.6885 14.5291 23.6885 14.2893C23.6885 14.0209 23.8123 13.7982 24.0543 13.6212C24.302 13.4443 24.6115 13.3529 24.9774 13.3529C25.484 13.3472 25.8779 13.4614 26.1594 13.6897C26.1594 14.078 26.0074 14.4148 25.7091 14.7003C25.4389 14.9744 25.0731 15.1285 24.6904 15.1285C24.4371 15.1342 24.1894 15.0486 23.9868 14.8887ZM28.9727 17.9432L32.0003 10.8922H31.0155L29.6142 14.4091H29.5973L28.1623 10.8922H27.1775L29.164 15.4768L28.0385 17.9432H28.9727Z" fill="#3C4043"/>
<path d="M15.9413 12.2613C15.9413 11.9816 15.9188 11.7018 15.8739 11.4277H12.0527V13.0092H14.2419C14.1518 13.5174 13.8592 13.9742 13.4315 14.2596V15.2873H14.7371C15.5024 14.5736 15.9413 13.5174 15.9413 12.2613Z" fill="#4285F4"/>
<path d="M12.0502 16.2819C13.1419 16.2819 14.0649 15.9165 14.7345 15.2884L13.429 14.2608C13.0632 14.512 12.5961 14.6547 12.0502 14.6547C10.9922 14.6547 10.0974 13.9296 9.77666 12.959H8.43164V14.0209C9.11824 15.4083 10.5195 16.2819 12.0502 16.2819Z" fill="#34A853"/>
<path d="M9.77998 12.9582C9.61115 12.4501 9.61115 11.8963 9.77998 11.3824V10.3262H8.43482C7.85506 11.4852 7.85506 12.8555 8.43482 14.0144L9.77998 12.9582Z" fill="#FBBC04"/>
<path d="M12.0502 9.68599C12.6298 9.67456 13.187 9.89725 13.6034 10.3026L14.7627 9.12645C14.0255 8.42991 13.0575 8.04742 12.0502 8.05884C10.5195 8.05884 9.11824 8.93808 8.43164 10.3254L9.77667 11.3874C10.0974 10.4111 10.9922 9.68599 12.0502 9.68599Z" fill="#EA4335"/>
<rect x="0.5" y="0.558594" width="39" height="24.8839" rx="3.5" stroke="black" stroke-opacity="0.08"/>
</svg>
